# xmcd
#
# Track frame offsets:
#	150
#	20354
#	42244
#	69857
#	94773
#	119822
#	144149
#	166150
#	189052
#	211759
#
# Disc length: 3146 seconds
#
# Revision: 3
# Processed by: cddbd v1.5.2PL0 Copyright (c) Steve Scherf et al.
# Submitted via: EZCDAudioConverter 8.0.2.1
#
DISCID=780c480a
DTITLE=Hồng Trúc - 10. Tình Ta Như Lúa Đơm Bông
DYEAR=2002
DGENRE=blues
TTITLE0=Tình Ta Như Lúa Đơm Bông
TTITLE1=Chắp tay lạy người
TTITLE2=Mùa sầu riêng
TTITLE3=Vọng về tim
TTITLE4=Biển tình
TTITLE5=Hai cánh phượng buồn
TTITLE6=Có lẽ
TTITLE7=Cầu tre kỷ niệm
TTITLE8=Khói lam chiều
TTITLE9=Thiệp hồng báo tin
EXTD=
EXTT0=
EXTT1=
EXTT2=
EXTT3=
EXTT4=
EXTT5=
EXTT6=
EXTT7=
EXTT8=
EXTT9=
PLAYORDER=
